<svg xmlns="http://www.w3.org/2000/svg" width="1200" height="700" viewBox="0 0 1200 700"><rect width="1200" height="700" fill="white"/><text x="60" y="65" font-family="Arial" font-size="34" font-weight="700">LSD fMRI — Pain Network Study Summary</text><text x="60" y="100" font-family="Arial" font-size="18" fill="#555">Original visual summary based on the published study</text><line x1="60" y1="125" x2="1140" y2="125" stroke="#ccc"/><text x="60" y="170" font-family="Arial" font-size="22" font-weight="700">Study design</text><rect x="60" y="195" width="250" height="95" rx="15" fill="#f4f4f4" stroke="#999"/><text x="185" y="232" text-anchor="middle" font-family="Arial" font-size="22">20 healthy volunteers</text><text x="185" y="262" text-anchor="middle" font-family="Arial" font-size="18">Balanced-order crossover</text><rect x="350" y="195" width="250" height="95" rx="15" fill="#f4f4f4" stroke="#999"/><text x="475" y="232" text-anchor="middle" font-family="Arial" font-size="22">LSD session</text><text x="475" y="262" text-anchor="middle" font-family="Arial" font-size="18">vs placebo session</text><rect x="640" y="195" width="250" height="95" rx="15" fill="#f4f4f4" stroke="#999"/><text x="765" y="232" text-anchor="middle" font-family="Arial" font-size="22">Pain neural network</text><text x="765" y="262" text-anchor="middle" font-family="Arial" font-size="18">fMRI biomarkers</text><text x="60" y="350" font-family="Arial" font-size="22" font-weight="700">Effective-connectivity findings</text><rect x="80" y="390" width="300" height="90" rx="20" fill="#f7f7f7" stroke="#888"/><text x="230" y="435" text-anchor="middle" font-family="Arial" font-size="22">lAIC</text><text x="430" y="440" font-family="Arial" font-size="34">→</text><rect x="500" y="390" width="300" height="90" rx="20" fill="#f7f7f7" stroke="#888"/><text x="650" y="435" text-anchor="middle" font-family="Arial" font-size="22">dlPFC</text><rect x="80" y="515" width="300" height="90" rx="20" fill="#f7f7f7" stroke="#888"/><text x="230" y="560" text-anchor="middle" font-family="Arial" font-size="22">SII</text><text x="430" y="565" font-family="Arial" font-size="34">→</text><rect x="500" y="515" width="300" height="90" rx="20" fill="#f7f7f7" stroke="#888"/><text x="650" y="560" text-anchor="middle" font-family="Arial" font-size="22">dlPFC</text><text x="850" y="400" font-family="Arial" font-size="20" font-weight="700">Methods</text><text x="850" y="435" font-family="Arial" font-size="18">ALFF</text><text x="850" y="465" font-family="Arial" font-size="18">ICA</text><text x="850" y="495" font-family="Arial" font-size="18">Functional connectivity</text><text x="850" y="525" font-family="Arial" font-size="18">DCM / effective connectivity</text><text x="850" y="555" font-family="Arial" font-size="18">Clinical correlation</text><text x="60" y="660" font-family="Arial" font-size="14" fill="#666">Visual layout is original; findings summarized from the published article.</text></svg>